<?xml version="1.0" standalone="no"?>
<!DOCTYPE svg PUBLIC "-//W3C//DTD SVG 20010904//EN"
 "http://www.w3.org/TR/2001/REC-SVG-20010904/DTD/svg10.dtd">
<svg version="1.0" xmlns="http://www.w3.org/2000/svg"
 width="279.000000pt" height="279.000000pt" viewBox="0 0 279.000000 279.000000"
 preserveAspectRatio="xMidYMid meet">
<metadata>
Created by potrace 1.14, written by Peter Selinger 2001-2017
</metadata>
<g transform="translate(0.000000,279.000000) scale(0.100000,-0.100000)"
fill="#000000" stroke="none">
<path d="M520 1605 l0 -445 453 0 c248 0 478 4 510 10 48 7 99 27 180 68 4 2
7 -15 7 -37 l0 -41 300 0 300 0 0 105 0 105 -175 0 -175 0 0 340 0 340 -125 0
-125 0 0 -35 c0 -40 -7 -42 -52 -16 -70 42 -139 51 -380 51 l-228 0 0 -340 0
-340 -120 0 -120 0 0 340 0 340 -125 0 -125 0 0 -445z m954 206 c36 -34 46
-79 46 -211 -1 -189 -33 -230 -184 -230 l-76 0 0 236 0 236 94 -4 c84 -3 97
-6 120 -27z"/>
<path d="M100 921 l0 -171 115 0 115 0 0 40 0 40 -65 0 -64 0 -3 128 -3 127
-47 3 -48 3 0 -170z"/>
<path d="M445 1078 c-3 -7 -25 -84 -49 -170 l-43 -158 48 0 c46 0 49 1 57 33
8 30 11 32 60 35 50 3 51 3 60 -30 8 -31 11 -33 55 -36 26 -2 47 0 47 4 0 8
-66 252 -81 302 l-11 32 -69 0 c-47 0 -71 -4 -74 -12z m88 -90 c3 -18 9 -48
13 -65 6 -32 5 -33 -25 -33 -35 0 -36 5 -19 79 13 59 23 65 31 19z"/>
<path d="M670 1079 c0 -6 19 -83 42 -170 l41 -159 73 0 73 0 10 38 c6 20 26
97 45 170 l35 132 -50 0 c-42 0 -49 -3 -54 -22 -3 -13 -16 -72 -29 -131 -14
-60 -27 -111 -29 -113 -4 -5 -11 24 -49 201 l-13 60 -48 3 c-31 2 -47 -1 -47
-9z"/>
<path d="M1020 920 l0 -170 50 0 50 0 0 170 0 170 -50 0 -50 0 0 -170z"/>
<path d="M1170 921 l0 -171 100 0 c162 0 190 24 190 162 0 149 -22 170 -182
176 l-108 4 0 -171z m184 67 c18 -26 21 -109 6 -139 -8 -14 -21 -19 -50 -19
l-40 0 0 90 0 90 34 0 c25 0 39 -7 50 -22z"/>
<path d="M1510 920 l0 -170 115 0 115 0 0 40 0 40 -65 0 -65 0 0 130 0 130
-50 0 -50 0 0 -170z"/>
<path d="M1770 970 c0 -189 24 -225 150 -225 126 0 150 36 150 225 l0 120 -50
0 -50 0 0 -123 c0 -132 -5 -147 -50 -147 -45 0 -50 15 -50 147 l0 123 -50 0
-50 0 0 -120z"/>
<path d="M2103 1083 c3 -5 19 -39 37 -78 18 -38 34 -73 36 -76 2 -3 -14 -43
-36 -88 -22 -46 -40 -84 -40 -87 0 -2 22 -4 49 -4 l50 0 28 62 27 62 28 -62
28 -62 50 0 c28 0 50 2 50 5 0 3 -19 42 -41 87 l-41 82 41 83 41 83 -51 0 -50
0 -24 -55 c-14 -30 -27 -55 -30 -55 -4 0 -17 25 -30 55 l-25 55 -50 0 c-28 0
-49 -3 -47 -7z"/>
<path d="M2450 920 l0 -170 120 0 120 0 0 40 0 40 -75 0 c-73 0 -75 1 -75 25
0 23 3 24 73 27 l72 3 0 35 0 35 -72 3 c-70 3 -73 4 -73 27 0 24 2 25 75 25
l75 0 0 40 0 40 -120 0 -120 0 0 -170z"/>
</g>
</svg>
