<?xml version="1.0" standalone="no"?>
<!DOCTYPE svg PUBLIC "-//W3C//DTD SVG 20010904//EN"
 "http://www.w3.org/TR/2001/REC-SVG-20010904/DTD/svg10.dtd">
<svg version="1.0" xmlns="http://www.w3.org/2000/svg"
 width="293.000000pt" height="293.000000pt" viewBox="0 0 293.000000 293.000000"
 preserveAspectRatio="xMidYMid meet">
<metadata>
Created by potrace 1.14, written by Peter Selinger 2001-2017
</metadata>
<g transform="translate(0.000000,293.000000) scale(0.100000,-0.100000)"
fill="#000000" stroke="none">
<path d="M0 1465 l0 -745 783 0 c725 1 788 2 867 20 94 20 161 47 217 85 21
14 40 25 43 25 3 0 5 -29 4 -65 l0 -65 508 0 508 0 0 178 0 177 -295 0 c-255
0 -295 2 -296 15 -1 8 -2 263 -2 565 l-2 550 -211 3 -211 2 1 -57 c1 -32 1
-61 -1 -65 -2 -4 -28 8 -57 27 -49 31 -129 63 -202 81 -16 4 -210 9 -431 11
-385 4 -403 4 -403 -14 0 -10 -2 -265 -3 -568 l-2 -550 -195 0 -195 0 -3 568
-2 567 -210 0 -210 0 0 -745z m1520 385 c69 -19 123 -79 139 -154 3 -17 6
-128 6 -246 l0 -215 -31 -55 c-24 -42 -43 -61 -78 -79 -42 -22 -60 -24 -184
-25 l-137 -1 -1 390 c0 215 3 392 7 395 13 9 238 1 279 -10z"/>
</g>
</svg>
